<svg xmlns="http://www.w3.org/2000/svg" width="44.336" height="51.626" viewBox="0 0 44.336 51.626"><path d="M1461.053 882.853q-18.54-6.066-22.168-22.376-.001 1.717.126-20.125 11.54-1.668 22.042-9.125 10.5 7.458 22.043 9.125.13 21.842.125 20.125-3.63 16.31-22.168 22.376m0-3.126q-16.296-5.332-19.484-19.666c0 1.006.033-4.89.11-17.688q10.144-1.467 19.374-8.021 9.23 6.555 19.374 8.021.114 19.197.11 17.688-3.19 14.335-19.484 19.666" style="fill:#627817;fill-opacity:1;fill-rule:evenodd;stroke:none;stroke-width:1.33333" transform="translate(-1438.885 -831.227)"/><path d="m1452.055 856.838 1.812-2.063 5.814 5.813 11-11.687 2.062 1.874-13 13.813z" style="fill:#627817;fill-opacity:1;fill-rule:evenodd;stroke:none;stroke-width:1.33333" transform="translate(-1438.885 -831.227)"/></svg>