<svg xmlns="http://www.w3.org/2000/svg" width="112" height="42" fill="none" viewBox="0 0 112 42"><path fill="#ef3e33" d="M28.589.296h10.292v40.071H28.59v-5.409H10.177l10.33-9.802h8.082V14.51L0 41.296V27.16z"/><path fill="url(#a)" d="M28.589.296h10.292v40.071H28.59v-5.409H10.177l10.33-9.802h8.082V14.51L0 41.296V27.16z"/><path fill="#ef3e33" d="M50.14 11.25h-8.45V.751h36.902L67.5 11.251h-6.276v29.571H50.14z"/><path fill="url(#b)" d="M50.14 11.25h-8.45V.751h36.902L67.5 11.251h-6.276v29.571H50.14z"/><path fill="#ef3e33" d="M101.785 10.428H81.171v20.756h11.161a2.44 2.44 0 0 0 1.372-.367 2.35 2.35 0 0 0 .868-.968c.211-.454.317-.95.31-1.452a2.9 2.9 0 0 0-.677-1.935 2.4 2.4 0 0 0-1.873-.774h-8.94v-9.706H94.35a9.9 9.9 0 0 1 4.19.88 10.1 10.1 0 0 1 3.438 2.488 11.4 11.4 0 0 1 2.279 3.87c.579 1.623.864 3.338.84 5.061a13.9 13.9 0 0 1-.84 4.723A13.6 13.6 0 0 1 101.949 37a11.1 11.1 0 0 1-3.408 2.797 8.95 8.95 0 0 1-4.133 1.035H70.946V10.428L81.171.75H112z"/><path fill="url(#c)" d="M101.785 10.428H81.171v20.756h11.161a2.44 2.44 0 0 0 1.372-.367 2.35 2.35 0 0 0 .868-.968c.211-.454.317-.95.31-1.452a2.9 2.9 0 0 0-.677-1.935 2.4 2.4 0 0 0-1.873-.774h-8.94v-9.706H94.35a9.9 9.9 0 0 1 4.19.88 10.1 10.1 0 0 1 3.438 2.488 11.4 11.4 0 0 1 2.279 3.87c.579 1.623.864 3.338.84 5.061a13.9 13.9 0 0 1-.84 4.723A13.6 13.6 0 0 1 101.949 37a11.1 11.1 0 0 1-3.408 2.797 8.95 8.95 0 0 1-4.133 1.035H70.946V10.428L81.171.75H112z"/><defs><linearGradient id="a" x1="56" x2="56" y1=".296" y2="41.296" gradientUnits="userSpaceOnUse"><stop stop-color="#ef3e33"/><stop offset="1" stop-color="#a5251d"/></linearGradient><linearGradient id="b" x1="56" x2="56" y1=".296" y2="41.296" gradientUnits="userSpaceOnUse"><stop stop-color="#ef3e33"/><stop offset="1" stop-color="#a5251d"/></linearGradient><linearGradient id="c" x1="56" x2="56" y1=".296" y2="41.296" gradientUnits="userSpaceOnUse"><stop stop-color="#ef3e33"/><stop offset="1" stop-color="#a5251d"/></linearGradient></defs></svg>